# xmcd CD database file
#
# Track frame offsets:
#	150
#	19675
#	37327
#	53735
#	73742
#
# Disc length: 1244 seconds
#
# Revision: 0
# Processed by: cddbd v1.5PL3 Copyright (c) Steve Scherf et al.
# Submitted via: CDex 1.51
#
DISCID=4204da05
DTITLE=古屋かおり - Primary
DYEAR=1998
DGENRE=Pop
TTITLE0=Rain
TTITLE1=瞳にうつして
TTITLE2=星をかぞえながら
TTITLE3=Sweet Friend
TTITLE4=Moon Dance
EXTD=YEAR: 1998
EXTT0=
EXTT1=
EXTT2=
EXTT3=
EXTT4=
PLAYORDER=
